<svg width="280" height="280" viewBox="0 0 280 280" fill="none" xmlns="http://www.w3.org/2000/svg">
<path opacity="0.8" fill-rule="evenodd" clip-rule="evenodd" d="M113.867 0C91.1861 0 72.8 18.3862 72.8 41.0667V61.6H140V72.8H72.8H41.0667C18.3862 72.8 0 91.1861 0 113.867V158.667C0 181.347 18.3862 199.733 41.0667 199.733H168C190.68 199.733 209.067 181.347 209.067 158.667V125.067V113.867V41.0667C209.067 18.3862 190.68 0 168 0H113.867ZM101.733 46.6667C108.434 46.6667 113.867 41.2345 113.867 34.5333C113.867 27.8322 108.434 22.4 101.733 22.4C95.0322 22.4 89.6 27.8322 89.6 34.5333C89.6 41.2345 95.0322 46.6667 101.733 46.6667Z" fill="#327EBD"/>
<path opacity="0.8" fill-rule="evenodd" clip-rule="evenodd" d="M166.133 280C188.813 280 207.2 261.613 207.2 238.933V218.4H140V207.2H207.2H238.933C261.613 207.2 280 188.813 280 166.133V121.333C280 98.6527 261.613 80.2666 238.933 80.2666H112C89.3195 80.2666 70.9333 98.6527 70.9333 121.333V154.933V166.133V238.933C70.9333 261.613 89.3195 280 112 280H166.133ZM178.267 233.333C171.566 233.333 166.133 238.765 166.133 245.467C166.133 252.168 171.566 257.6 178.267 257.6C184.968 257.6 190.4 252.168 190.4 245.467C190.4 238.765 184.968 233.333 178.267 233.333Z" fill="#FFCD38"/>
</svg>
